<svg width="309" height="425" viewBox="0 0 309 425" fill="none" xmlns="http://www.w3.org/2000/svg">
<path d="M308.899 83.4279H256.281V396.871C258.276 396.403 260.403 394.723 262.065 393.521C287.655 374.959 306.729 346.968 308.936 314.711L308.899 83.4279Z" fill="#003150"/>
<path d="M185.392 423.174C202.548 421.164 220.497 417.771 235.818 409.657V187.178H185.392V423.174Z" fill="#00324D"/>
<path d="M163.468 423.539V242.341C163.468 242.115 164.469 241.3 164.198 240.515H116.696V418.059C132.273 421.68 148.197 424.036 164.198 424.628C164.56 424.368 163.468 423.696 163.468 423.539Z" fill="#1C8598"/>
<path d="M46.5375 293.12V370.203C59.7652 386.551 76.3474 399.238 94.7711 409.292V294.947C94.7711 294.764 95.3631 294.512 95.3412 294.216L94.4057 293.12H46.5375ZM53.1075 374.221C52.8481 374.517 49.1648 370.831 49.4607 370.575C50.7981 370.111 53.7981 373.428 53.1075 374.221Z" fill="#1B8698"/>
<path d="M143.542 108.821C170.111 112.876 172.029 67.4196 141.353 72.6437C124.026 75.5954 123.525 105.767 143.542 108.821Z" fill="#007B9B"/>
<path d="M144.306 154.468C121.512 156.849 124.238 191.847 147.744 190.093C171.759 188.3 167.129 152.086 144.306 154.468Z" fill="#007B9B"/>
<path d="M77.7615 201.955C59.4619 205.667 60.7518 237.278 82.7201 236.913C108.328 236.485 104.601 196.512 77.7615 201.955Z" fill="#007B9B"/>
<path d="M12.7301 166.896C-5.19311 170.005 -4.11517 200.246 15.4889 201.78C42.5363 203.899 40.7933 162.026 12.7301 166.896Z" fill="#007B9B"/>
<path d="M211.891 146.818C232.117 143.366 229.924 108.591 204.934 112.825C184.036 116.365 186.338 151.176 211.891 146.818Z" fill="#007B9B"/>
<path d="M219.755 37.7448C203.092 24.0673 183.327 48.0249 197.344 61.9764C213.806 78.3572 237.272 52.1274 219.755 37.7448Z" fill="#007B9B"/>
<path d="M82.2414 145.828C105.503 146.756 103.53 109.979 78.5033 114.29C62.1623 117.106 62.0198 145.02 82.2414 145.828Z" fill="#007B9B"/>
<path d="M13.4572 243.613C-4.68885 246.696 -1.89349 276.509 18.0687 275.249C40.0552 273.861 37.2525 239.572 13.4572 243.613Z" fill="#007B9B"/>
<path d="M143.432 31.4869C169.552 35.1401 167.757 -3.86855 143.542 0.314347C127.333 3.11268 127.135 29.2073 143.432 31.4869Z" fill="#007B9B"/>
</svg>
