<svg width="250" height="91" viewBox="0 0 250 91" fill="none" xmlns="http://www.w3.org/2000/svg">
<path d="M66.1257 17.7684H54.8617V84.5254C55.2888 84.4258 55.744 84.0679 56.1 83.8119C61.5778 79.8586 65.661 73.8972 66.1335 67.0269L66.1257 17.7684Z" fill="#003150"/>
<path d="M39.6866 90.1274C43.3591 89.6994 47.2014 88.9766 50.4812 87.2486V39.8651H39.6866V90.1274Z" fill="#00324D"/>
<path d="M34.9933 90.2051V51.6137C34.9933 51.5655 35.2076 51.392 35.1497 51.2247H24.9808V89.0381C28.3154 89.8091 31.7244 90.311 35.1497 90.437C35.2271 90.3818 34.9933 90.2386 34.9933 90.2051Z" fill="#1C8598"/>
<path d="M9.96222 62.4287V78.8456C12.7939 82.3274 16.3436 85.0296 20.2875 87.1708V62.8177C20.2875 62.7788 20.4143 62.7251 20.4096 62.6621L20.2093 62.4287H9.96222ZM11.3687 79.7015C11.3131 79.7645 10.5246 78.9794 10.588 78.925C10.8743 78.8261 11.5165 79.5326 11.3687 79.7015Z" fill="#1B8698"/>
<path d="M30.7278 23.1767C36.4153 24.0403 36.826 14.359 30.2593 15.4716C26.55 16.1003 26.4428 22.5262 30.7278 23.1767Z" fill="#007B9B"/>
<path d="M30.8913 32.8984C26.0119 33.4057 26.5954 40.8595 31.6274 40.486C36.7682 40.104 35.7771 32.3911 30.8913 32.8984Z" fill="#007B9B"/>
<path d="M16.6463 43.0124C12.7289 43.8029 13.0051 50.5354 17.7078 50.4576C23.1896 50.3665 22.3917 41.8531 16.6463 43.0124Z" fill="#007B9B"/>
<path d="M2.72511 35.5454C-1.11168 36.2075 -0.880927 42.6482 3.31569 42.975C9.10568 43.4263 8.73256 34.5082 2.72511 35.5454Z" fill="#007B9B"/>
<path d="M45.3593 31.2692C49.6888 30.5339 49.2195 23.1276 43.8699 24.0294C39.3964 24.7833 39.8892 32.1974 45.3593 31.2692Z" fill="#007B9B"/>
<path d="M47.0426 8.03888C43.4757 5.12585 39.2447 10.2283 42.2453 13.1997C45.7692 16.6885 50.7926 11.1021 47.0426 8.03888Z" fill="#007B9B"/>
<path d="M17.6053 31.0583C22.5849 31.256 22.1625 23.4233 16.8051 24.3414C13.307 24.9413 13.2765 30.8864 17.6053 31.0583Z" fill="#007B9B"/>
<path d="M2.88076 51.8845C-1.00375 52.5412 -0.405347 58.8908 3.86792 58.6224C8.57454 58.3268 7.97458 51.024 2.88076 51.8845Z" fill="#007B9B"/>
<path d="M30.7043 6.70607C36.2956 7.48412 35.9116 -0.823921 30.7278 0.0669496C27.2579 0.662938 27.2156 6.22057 30.7043 6.70607Z" fill="#007B9B"/>
<path d="M176.028 77.7407L175.604 77.3852C174.76 76.4079 170.136 68.5535 169.616 68.4026H167.191V81.1626H169.069L169.303 71.6735L175.717 81.1626H178.142V68.4026H175.952L176.028 77.7407Z" fill="#0580A1"/>
<path d="M214.46 74.834C214.162 74.634 213.519 74.6519 213.909 74.3025C214.411 73.852 214.986 73.817 215.302 72.9199C216.08 70.7079 214.589 68.6687 212.325 68.4026C210.559 68.1948 208.422 68.5566 206.615 68.4026V81.1626H212.794C212.887 81.1626 213.903 80.8055 214.074 80.7238C216.436 79.591 216.644 76.2944 214.46 74.8347V74.834ZM208.649 70.1135H211.856C213.076 70.1135 213.71 71.7684 213.166 72.8165C213.04 73.0592 212.201 73.6926 212.012 73.6926H208.649V70.1135ZM213.423 78.8308C213.232 79.0059 212.215 79.4502 212.012 79.4502H208.649V75.4043C209.755 75.5404 211.277 75.2199 212.325 75.4043C213.734 75.6517 214.579 77.7688 213.423 78.8308Z" fill="#0580A1"/>
<path d="M188.702 68.4018H183.305V81.1618H188.858C189.034 81.1618 190.32 80.7954 190.585 80.7004C196.76 78.5048 195.116 68.4018 188.702 68.4018ZM190.61 78.5468C190.317 78.7289 188.962 79.2945 188.702 79.2945H185.338V70.2691H189.015C189.113 70.2691 190.374 70.8036 190.554 70.9164C192.988 72.4461 193.054 77.0234 190.61 78.546V78.5468Z" fill="#0580A1"/>
<path d="M155.63 68.4181L151.077 81.1626H153.267L154.226 78.0706L159.855 78.143L160.776 81.1626H163.122L158.201 68.3916L155.629 68.4181H155.63ZM154.988 76.1823C155.629 74.5406 156.052 72.4313 156.751 70.855C156.813 70.7141 157.081 70.3523 157.176 70.4247L159.055 76.1823H154.987H154.988Z" fill="#0580A1"/>
<path d="M107.273 81.1618H115.564V79.2945H109.307V75.7155H115.251V73.8481H109.541L109.307 73.6147V70.2691H115.564V68.4018H107.273V81.1618Z" fill="#0580A1"/>
<path d="M96.1621 72.685C94.6899 70.6612 98.8107 68.5963 100.298 71.2238C100.392 71.3911 100.366 71.6704 100.388 71.6704H102.579C101.893 66.4434 92.9237 67.1927 93.8553 72.6453C94.4443 76.0913 99.6172 75.135 100.525 76.9036C101.618 79.0346 98.1959 80.3324 96.3303 78.8969C95.7061 78.4169 95.7639 77.7392 95.6951 77.7392H93.5049C94.1041 83.177 103.724 82.5701 102.698 76.6095C102.155 73.4568 97.2228 74.1438 96.1613 72.685H96.1621Z" fill="#0580A1"/>
<path d="M228.673 77.3494C228.673 77.4311 228.356 78.0481 228.272 78.1951C227.279 79.9457 224.154 79.8819 223.066 78.2574C222.978 78.1251 222.572 77.2607 222.572 77.193V68.401H220.538V77.193C220.538 81.5594 227.884 83.1653 230.11 79.0883C230.212 78.9 230.707 77.7493 230.707 77.6598V68.401H228.673V77.3486V77.3494Z" fill="#0580A1"/>
<path d="M243.614 68.4018C243.307 68.4018 241.137 73.1541 240.749 73.7991C240.646 73.9695 240.587 74.1959 240.33 74.1609L237.278 68.4018H234.775L239.363 76.52C239.634 78.0636 239.405 79.6236 239.311 81.1626H241.345V76.8825L246.039 68.4018H243.614Z" fill="#0580A1"/>
<path d="M134.494 68.4018H132.46V81.1618H140.282V79.2945H134.494V68.4018Z" fill="#0580A1"/>
<path d="M122.291 68.4018L120.413 68.401L120.258 81.1618H128.08V79.2945H122.291V68.4018Z" fill="#0580A1"/>
<path d="M202.893 32.8721C202.412 32.5507 200.348 31.6428 200.245 31.5362C199.96 31.2405 200.364 31.2802 200.481 31.2281C207.553 28.0723 207.686 17.4519 201.231 13.518C198.1 11.6102 195.6 11.3869 192.026 11.3154C187.235 11.2189 182.316 11.4321 177.476 11.3154C176.919 11.3021 174.136 10.8322 173.963 11.3869V54.4133L193.603 54.4195C199.228 53.9565 205.417 51.813 207.049 45.8531C208.384 40.9778 207.238 35.7766 202.894 32.8721H202.893ZM181.786 17.6876C182.005 17.802 182.228 17.8448 182.479 17.8533C185.864 17.9677 191.929 17.2822 194.878 18.2813C199.241 19.7596 199.171 27.1619 194.855 28.5897C194.591 28.6768 193.136 29.0487 192.97 29.0487H181.784L181.786 17.6876ZM196.808 46.404C195.948 46.8988 193.772 47.5656 192.813 47.5656H181.784C181.761 47.2233 181.646 46.9066 181.621 46.5604C181.413 43.7275 181.43 39.277 181.621 36.4325C181.636 36.2021 181.726 35.1518 181.876 35.1074C185.173 35.2584 188.6 34.9401 191.882 35.1105C195.026 35.2739 198.014 35.824 198.998 39.2358C199.709 41.7022 199.181 45.0385 196.809 46.404H196.808Z" fill="#003253"/>
<path d="M149.922 11.25C147.692 11.2064 144.569 10.882 142.43 11.1449C142.258 11.166 142.082 11.1364 141.967 11.3068L126.09 54.4132H134.069L137.977 44.0628H155.66L155.936 44.4114L159.804 54.4132H167.705L151.719 11.4149C151.372 10.8563 150.45 11.2601 149.923 11.25H149.922ZM140.17 37.4517L146.819 19.2437L153.624 37.4517H140.17Z" fill="#003253"/>
<path d="M249.913 11.1512C247.552 11.6165 245.089 10.8672 242.711 11.1465C241.776 11.2562 242.316 12.0778 242.335 12.7804C242.55 20.6714 242.754 30.0151 242.326 37.8392C242.04 43.0475 239.948 47.098 234.388 47.9943C228.129 49.0034 222.78 45.9729 222.146 39.3968V11.3869C222.146 11.32 221.901 11.1255 221.77 11.1613L214.323 11.1527L214.325 39.7065C214.698 60.2424 249.956 60.4618 250 39.7158L249.912 11.1512H249.913Z" fill="#003253"/>
<path d="M111.886 30.3388C108.206 29.146 98.8812 28.1859 98.2562 23.5114C97.2448 15.9401 109.101 14.9302 112.856 19.8817C113.269 20.4256 114.258 22.9807 114.434 22.9807H121.474C121.57 22.9807 121.675 22.7745 121.68 22.6283C121.697 22.0844 121.159 20.0747 120.967 19.4382C117.12 6.6525 92.9559 7.21815 90.7782 20.1471C89.4468 28.0536 93.9861 32.3399 101.026 34.6048C105.751 36.1251 117.742 36.8728 114.745 44.6083C113.106 48.837 105.986 49.0572 102.306 47.9593C99.295 47.0615 97.6641 44.844 97.2252 41.801L97.0696 41.6906C97.0054 41.6843 96.9499 41.8096 96.9116 41.8096H89.4805C89.7934 49.1513 95.3057 54.0103 102.39 54.8778C112.83 56.1569 124.024 52.7817 122.604 40.2185C121.991 34.7978 116.568 31.8575 111.885 30.3395L111.886 30.3388Z" fill="#003253"/>
</svg>
